<svg xmlns="http://www.w3.org/2000/svg" width="62.969" height="61.73" viewBox="0 0 62.969 61.73"><defs><style>.a{fill:#ebebeb;}.b{fill:#00a8cc;}.c{fill:#ffa41b;}.d{fill:#005082;}</style></defs><g transform="translate(0 0)"><path class="a" d="M62.969,30.865a30.53,30.53,0,0,1-7.41,19.894,31.505,31.505,0,0,1-3.715,3.651,31.97,31.97,0,0,1-40.719,0,31.4,31.4,0,0,1-3.714-3.651A30.423,30.423,0,0,1,9.222,9.04a31.934,31.934,0,0,1,44.526,0A30.361,30.361,0,0,1,62.969,30.865Z" transform="translate(0 0)"/><path class="b" d="M123.291,245.22a20.914,20.914,0,0,1-.651,5.182,1.923,1.923,0,0,1-.636,1,31.97,31.97,0,0,1-40.719,0,1.923,1.923,0,0,1-.636-1,20.933,20.933,0,0,1,5.589-20.088A21.733,21.733,0,0,1,101.34,224h.612a21.733,21.733,0,0,1,15.1,6.313A20.885,20.885,0,0,1,123.291,245.22Z" transform="translate(-70.161 -196.993)"/><path class="c" d="M273.452,30.865a30.53,30.53,0,0,1-7.41,19.894,31.507,31.507,0,0,1-3.715,3.651,31.868,31.868,0,0,1-20.359,7.321q-.987,0-1.968-.061a31.823,31.823,0,0,0,18.391-7.259,31.5,31.5,0,0,0,3.715-3.651A30.424,30.424,0,0,0,260.3,9.04,31.539,31.539,0,0,0,240,.059Q240.98,0,241.968,0a31.6,31.6,0,0,1,22.263,9.04A30.362,30.362,0,0,1,273.452,30.865Z" transform="translate(-210.483 0)"/><path class="d" d="M263.614,245.22a20.915,20.915,0,0,1-.651,5.182,1.923,1.923,0,0,1-.636,1,31.869,31.869,0,0,1-20.359,7.321q-.987,0-1.968-.062a31.824,31.824,0,0,0,18.392-7.259,1.923,1.923,0,0,0,.636-1,20.934,20.934,0,0,0-5.589-20.088A21.683,21.683,0,0,0,240,224.087q.825-.074,1.662-.086h.612a21.734,21.734,0,0,1,15.1,6.313A20.885,20.885,0,0,1,263.614,245.22Z" transform="translate(-210.483 -196.993)"/><path class="b" d="M11.544,0A11.344,11.344,0,0,1,23.089,11.132,11.344,11.344,0,0,1,11.544,22.263,11.344,11.344,0,0,1,0,11.132,11.344,11.344,0,0,1,11.544,0Z" transform="translate(19.94 8.096)"/><path class="d" d="M253.775,75.574a11.706,11.706,0,0,1-11.807,11.574A12.023,12.023,0,0,1,240,86.987a11.539,11.539,0,0,0,0-22.826A12.023,12.023,0,0,1,241.968,64,11.706,11.706,0,0,1,253.775,75.574Z" transform="translate(-210.483 -56.284)"/></g></svg>